<?xml version="1.0" standalone="no"?>
<!DOCTYPE svg PUBLIC "-//W3C//DTD SVG 20010904//EN"
 "http://www.w3.org/TR/2001/REC-SVG-20010904/DTD/svg10.dtd">
<svg version="1.0" xmlns="http://www.w3.org/2000/svg"
 width="1080.000000pt" height="1080.000000pt" viewBox="0 0 1080.000000 1080.000000"
 preserveAspectRatio="xMidYMid meet">
<metadata>
Created by potrace 1.16, written by Peter Selinger 2001-2019
</metadata>
<g transform="translate(0.000000,1080.000000) scale(0.100000,-0.100000)"
fill="#000000" stroke="none">
<path d="M3660 8775 c-253 -57 -596 -196 -789 -322 -166 -108 -257 -218 -337
-410 -90 -215 -304 -798 -549 -1495 l-98 -277 -221 -3 -222 -3 -69 -34 c-78
-39 -165 -115 -201 -177 -13 -23 -35 -74 -49 -114 -24 -69 -25 -86 -25 -290
l0 -217 27 -14 c21 -10 85 -15 246 -17 200 -3 218 -5 212 -20 -33 -82 -87
-238 -97 -278 -9 -36 -13 -426 -15 -1494 -4 -1583 -7 -1498 53 -1577 l25 -33
789 0 789 0 25 33 c53 69 56 94 56 428 l0 309 2195 0 2195 0 0 -309 c0 -334 3
-359 56 -428 l25 -33 795 0 794 0 30 47 c17 26 35 63 40 83 6 22 10 544 10
1420 0 1571 2 1512 -74 1719 -25 69 -46 126 -46 127 0 1 96 4 213 6 149 2 219
7 235 16 22 13 22 14 22 248 0 231 0 237 -26 302 -50 126 -124 206 -243 265
l-65 32 -227 3 -227 3 -16 39 c-9 22 -93 255 -187 517 -314 879 -478 1306
-541 1409 -71 120 -260 268 -451 353 -124 56 -354 132 -552 183 l-90 23 -1655
2 -1655 1 -105 -23z m2465 -535 c659 -27 1085 -88 1280 -185 l80 -40 142 -280
c233 -458 373 -781 486 -1115 50 -147 137 -440 137 -461 0 -31 -903 -88 -1735
-109 -949 -24 -2380 -5 -3140 40 -477 29 -803 55 -813 64 -8 9 63 268 138 496
108 331 244 659 442 1070 52 107 101 216 108 243 48 175 396 243 1450 280 213
8 1208 5 1425 -3z m763 -2904 c15 -8 39 -27 54 -43 44 -46 56 -88 53 -188 -4
-133 -59 -274 -165 -424 -60 -84 -216 -249 -226 -238 -4 4 20 35 52 69 73 77
141 172 183 257 39 76 37 92 -2 18 -26 -51 -206 -287 -270 -356 -48 -51 -196
-145 -260 -165 -53 -17 -56 -19 -45 -39 31 -60 216 -286 323 -396 128 -131
187 -171 253 -171 40 0 110 37 146 78 10 12 23 19 27 16 20 -12 6 -55 -34
-110 -103 -140 -204 -189 -300 -146 -86 38 -327 299 -327 353 0 10 -4 19 -9
21 -13 5 -153 238 -167 278 l-12 34 -17 -39 c-22 -52 -85 -298 -85 -333 -1
-37 -43 -67 -93 -65 -75 3 -99 57 -77 172 6 36 21 116 31 176 11 61 35 157 54
213 19 57 35 110 35 117 0 45 97 350 116 365 8 7 14 19 14 26 0 22 129 357
148 383 9 13 31 49 47 80 33 61 55 73 87 44 37 -33 48 -71 32 -122 -7 -24 -17
-47 -23 -50 -12 -8 -91 -166 -135 -272 -42 -102 -108 -291 -103 -295 2 -2 18
32 37 76 18 45 35 79 37 76 2 -2 -5 -34 -16 -71 -31 -101 -26 -99 30 11 56
108 87 157 159 249 26 33 60 83 76 112 35 63 215 268 258 294 37 23 77 24 114
5z m-2118 -32 c74 -38 138 -144 147 -244 10 -110 -36 -207 -128 -268 -47 -31
-125 -60 -135 -50 -3 4 24 64 60 135 77 149 102 241 79 286 -18 36 -44 35
-105 -4 -80 -52 -189 -202 -287 -397 -125 -249 -256 -677 -268 -878 -5 -93 -4
-106 17 -149 39 -82 94 -89 215 -28 95 48 269 253 367 431 22 39 44 70 49 66
14 -8 11 -114 -6 -179 -35 -133 -106 -248 -232 -372 -117 -116 -173 -142 -261
-119 -110 28 -245 138 -291 236 -24 51 -26 64 -24 181 2 69 9 159 17 200 45
233 191 624 253 674 7 6 19 26 27 46 18 43 124 216 169 274 125 164 231 214
337 159z m886 -39 c77 -38 164 -111 164 -139 0 -30 -56 -78 -87 -74 -27 3 -44
26 -78 109 -24 59 -125 14 -214 -97 -175 -217 -313 -572 -356 -916 -21 -171
-9 -182 83 -84 107 115 97 99 354 526 55 90 114 191 131 223 61 113 67 122 88
140 28 22 56 22 96 -3 47 -28 57 -52 38 -96 -8 -20 -26 -49 -39 -65 -29 -34
-117 -295 -140 -414 -9 -44 -23 -172 -31 -284 -14 -189 -14 -207 2 -257 9 -30
22 -54 28 -54 22 0 62 39 99 94 42 64 55 74 67 55 17 -27 -23 -168 -61 -217
-29 -37 -58 -51 -103 -52 -81 0 -165 72 -192 165 -27 95 -20 420 12 549 8 32
13 60 11 62 -2 1 -28 -41 -57 -94 -96 -174 -235 -403 -270 -443 -47 -55 -84
-73 -124 -59 -59 20 -147 116 -173 188 -25 69 -12 271 26 414 18 65 71 201 86
218 7 8 16 29 20 45 14 58 124 277 181 363 75 111 158 200 208 224 58 27 140
18 231 -27z m-3215 -265 c103 -25 282 -89 469 -167 251 -106 269 -112 394
-144 177 -45 235 -79 295 -175 117 -183 80 -355 -89 -417 -58 -21 -158 -37
-238 -37 l-64 0 -186 126 -186 127 -130 4 c-146 6 -285 -5 -486 -38 -160 -26
-196 -22 -249 27 -61 54 -63 67 -59 311 3 195 5 223 24 263 24 52 78 103 126
119 93 31 256 31 379 1z m6243 15 c102 -13 159 -53 197 -139 22 -47 24 -68 27
-271 l4 -220 -32 -43 c-20 -28 -48 -51 -77 -64 -48 -21 -107 -21 -260 3 -123
19 -349 28 -474 19 l-126 -8 -171 -111 -171 -111 -78 0 c-242 0 -431 93 -408
200 12 56 295 384 359 417 16 8 60 19 98 24 47 6 106 25 193 64 346 153 599
237 745 247 44 4 111 1 174 -7z"/>
<path d="M3588 7814 c-5 -4 -8 -274 -8 -601 l0 -593 95 0 95 0 2 243 3 242 54
-1 c114 -4 131 -37 131 -263 0 -87 3 -173 6 -190 l7 -31 99 0 c77 0 97 3 91
13 -4 6 -11 102 -14 212 -7 230 -16 271 -76 324 l-39 35 41 41 c54 54 70 110
70 250 0 66 -6 130 -14 160 -18 60 -79 125 -136 143 -45 15 -395 29 -407 16z
m346 -207 c17 -23 22 -46 24 -121 6 -165 -20 -206 -133 -206 l-55 0 0 180 0
181 71 -3 c66 -3 74 -5 93 -31z"/>
<path d="M4377 7814 c-4 -4 -7 -274 -7 -601 l0 -593 260 0 260 0 0 85 0 85
-165 0 -165 0 0 175 0 175 130 0 130 0 0 85 0 85 -130 0 -130 0 0 165 0 165
163 2 162 3 0 85 0 85 -251 3 c-138 1 -253 -1 -257 -4z"/>
<path d="M5107 7813 c-4 -3 -7 -273 -7 -600 l0 -593 85 0 85 0 1 423 c0 264 4
415 10 402 5 -11 54 -189 110 -395 55 -206 104 -386 108 -400 7 -24 11 -25
104 -28 l97 -3 0 601 0 601 -82 -3 -83 -3 -3 -345 -4 -345 -88 325 c-49 179
-92 335 -95 348 -5 21 -10 22 -119 22 -62 0 -116 -3 -119 -7z"/>
<path d="M5890 7730 l0 -90 100 0 100 0 0 -510 0 -510 90 0 90 0 0 510 0 510
100 0 100 0 0 90 0 90 -290 0 -290 0 0 -90z"/>
<path d="M6800 7817 c0 -2 -43 -270 -95 -596 -52 -326 -95 -594 -95 -597 0 -4
170 -6 171 -1 0 1 8 49 17 107 l17 105 115 0 115 0 15 -105 15 -105 98 -3 c91
-3 98 -1 93 15 -3 10 -46 275 -96 588 -50 314 -92 576 -95 583 -3 9 -41 12
-140 12 -74 0 -135 -1 -135 -3z m171 -504 c21 -142 41 -270 44 -285 l5 -28
-91 0 -91 0 5 28 c2 15 22 145 43 289 21 144 40 260 42 258 2 -2 21 -119 43
-262z"/>
<path d="M6720 5144 c-94 -85 -335 -437 -403 -589 -24 -55 -56 -126 -71 -158
l-26 -57 30 15 c16 8 35 15 42 15 21 0 128 74 184 127 125 118 254 318 308
477 22 64 30 159 17 185 -16 30 -35 26 -81 -15z"/>
</g>
</svg>
